<svg width="20" height="18" viewBox="0 0 20 18" fill="none" xmlns="http://www.w3.org/2000/svg">
<path d="M1.20883 6.40682C1.20883 5.38173 1.20883 4.64797 1.25719 4.07377C1.30312 3.50683 1.39016 3.1478 1.53764 2.85889L0.461774 2.31008C0.212755 2.79724 0.103959 3.33396 0.0507708 3.97585C-2.2066e-07 4.61049 0 5.40228 0 6.40682H1.20883ZM1.20883 7.85742V6.40682H0V7.85742H1.20883ZM0 7.85742V13.9016H1.20883V7.85742H0ZM0 13.9016V16.2153H1.20883V13.9016H0ZM0 16.2153C0 17.238 1.23664 17.7505 1.96073 17.0264L1.10608 16.1718C1.11577 16.1636 1.12745 16.1582 1.13993 16.1561C1.15042 16.1538 1.16134 16.1547 1.17136 16.1585C1.18146 16.1641 1.19004 16.1721 1.19636 16.1818C1.20267 16.1915 1.20654 16.2026 1.20762 16.2141L0 16.2153ZM1.96073 17.0264L4.30466 14.6825L3.45001 13.8278L1.10487 16.173L1.96073 17.0264ZM12.9345 13.2972H4.73138V14.506H12.9345V13.2972ZM16.4824 12.9684C16.1935 13.1158 15.8345 13.2029 15.2676 13.25C14.6922 13.2972 13.9596 13.2972 12.9345 13.2972V14.506C13.9403 14.506 14.7308 14.506 15.3655 14.454C16.0074 14.402 16.5441 14.2932 17.0313 14.0454L16.4824 12.9684ZM17.8025 11.6471C17.5128 12.2154 17.0507 12.6787 16.4824 12.9684L17.0313 14.0454C17.8276 13.6398 18.4751 12.9923 18.8808 12.1959L17.8025 11.6471ZM18.1325 8.09919C18.1325 9.12428 18.1325 9.85804 18.0842 10.4322C18.0382 10.9992 17.9512 11.3582 17.8025 11.6471L18.8808 12.1959C19.1286 11.7088 19.2374 11.172 19.2894 10.5302C19.3413 9.89551 19.3413 9.10373 19.3413 8.09919H18.1325ZM18.1325 6.40682V8.09919H19.3413V6.40682H18.1325ZM17.8025 2.85889C17.95 3.1478 18.0382 3.50683 18.0854 4.07377C18.1325 4.64797 18.1325 5.38173 18.1325 6.40682H19.3413C19.3413 5.40107 19.3413 4.61049 19.2894 3.97585C19.2374 3.33396 19.1286 2.79724 18.8808 2.31008L17.8025 2.85889ZM16.4824 1.53764C17.0509 1.82763 17.513 2.29014 17.8025 2.85889L18.8808 2.31008C18.4751 1.5137 17.8276 0.866247 17.0313 0.460566L16.4824 1.53764ZM12.9345 1.20883C13.9596 1.20883 14.6922 1.20883 15.2676 1.25719C15.8345 1.30312 16.1935 1.39016 16.4824 1.53764L17.0313 0.460566C16.5441 0.211546 16.0074 0.103959 15.3655 0.0507708C14.7308 -2.2066e-07 13.9391 0 12.9345 0V1.20883ZM6.40682 1.20883H12.9345V0H6.40682V1.20883ZM2.85889 1.53764C3.1478 1.39137 3.50683 1.30312 4.07377 1.25598C4.64797 1.20883 5.38173 1.20883 6.40682 1.20883V0C5.40107 0 4.61049 2.65692e-07 3.97585 0.0519801C3.33396 0.10396 2.79724 0.212755 2.31008 0.460566L2.85889 1.53764ZM1.53764 2.85889C1.82742 2.28996 2.28996 1.82742 2.85889 1.53764L2.31008 0.460566C1.51389 0.865932 0.867661 1.51415 0.461774 2.31008L1.53764 2.85889ZM4.30466 14.6825C4.41793 14.5695 4.57138 14.506 4.73138 14.506V13.2972C4.25063 13.2976 3.78974 13.4889 3.45001 13.8291L4.30466 14.6825Z" fill="black" fill-opacity="0.5"/>
<path d="M5.43994 5.43945H13.9018H5.43994ZM5.43994 9.06595H11.4841H5.43994Z" fill="black" fill-opacity="0.5"/>
<path d="M5.43994 5.43945H13.9018M5.43994 9.06595H11.4841" stroke="black" stroke-opacity="0.5" stroke-linecap="round" stroke-linejoin="round"/>
</svg>
