<svg width="16" height="20" viewBox="0 0 16 20" fill="none" xmlns="http://www.w3.org/2000/svg">
<path fill-rule="evenodd" clip-rule="evenodd" d="M6.66667 1.33333C5.93027 1.33333 5.33333 1.93029 5.33333 2.66667H10.6667C10.6667 1.93029 10.0697 1.33333 9.33333 1.33333H6.66667ZM12 2.66667C12 1.19391 10.8061 0 9.33333 0H6.66667C5.19387 0 4 1.19391 4 2.66667H2H0V4H1.33333V17.3333C1.33333 18.8061 2.5272 20 4 20H12C13.4728 20 14.6667 18.8061 14.6667 17.3333V4H16V2.66667H14H12ZM13.3333 4H11.3333H4.66667H2.66667V17.3333C2.66667 18.0697 3.2636 18.6667 4 18.6667H12C12.7364 18.6667 13.3333 18.0697 13.3333 17.3333V4ZM5.33333 13.3333V8H6.66667V13.3333H5.33333ZM9.33333 13.3333V8H10.6667V13.3333H9.33333Z" fill="#FF5858"/>
</svg>
