<svg width="21" height="21" viewBox="0 0 21 21" fill="none" xmlns="http://www.w3.org/2000/svg">
<path fill-rule="evenodd" clip-rule="evenodd" d="M19.25 1.75H1.75V12.7626L5.50637 9.00637L6.125 8.38758L6.74363 9.00637L16.9874 19.25H19.25V1.75ZM1.75 19.25V15.2374L6.125 10.8624L14.5126 19.25H1.75ZM1.75 0C0.783475 0 0 0.783475 0 1.75V19.25C0 20.2165 0.783475 21 1.75 21H19.25C20.2165 21 21 20.2165 21 19.25V1.75C21 0.783475 20.2165 0 19.25 0H1.75ZM15.75 7C15.75 7.96653 14.9665 8.75 14 8.75C13.0335 8.75 12.25 7.96653 12.25 7C12.25 6.03347 13.0335 5.25 14 5.25C14.9665 5.25 15.75 6.03347 15.75 7ZM17.5 7C17.5 8.93305 15.9331 10.5 14 10.5C12.0669 10.5 10.5 8.93305 10.5 7C10.5 5.06695 12.0669 3.5 14 3.5C15.9331 3.5 17.5 5.06695 17.5 7Z" fill="black" fill-opacity="0.5"/>
</svg>
