<svg width="98" height="50" viewBox="0 0 98 50" fill="none" xmlns="http://www.w3.org/2000/svg">
<path d="M36.6 30.59H41.1C42.46 30.59 43.51 30.27 44.25 29.63C44.99 28.97 45.36 28.02 45.36 26.78C45.36 24.22 43.94 22.94 41.1 22.94H36.6V30.59ZM32.61 21.86C32.61 21.14 32.85 20.56 33.33 20.12C33.81 19.66 34.43 19.43 35.19 19.43H41.13C42.83 19.43 44.3 19.75 45.54 20.39C46.8 21.03 47.76 21.91 48.42 23.03C49.1 24.15 49.44 25.42 49.44 26.84C49.44 28.26 49.1 29.52 48.42 30.62C47.76 31.72 46.8 32.58 45.54 33.2C44.3 33.8 42.83 34.1 41.13 34.1H36.6V41.15C36.6 41.81 36.42 42.29 36.06 42.59C35.7 42.89 35.22 43.04 34.62 43.04C34.04 43.04 33.56 42.88 33.18 42.56C32.8 42.26 32.61 41.79 32.61 41.15V21.86ZM78.2034 21.17C78.2034 20.63 78.3634 20.21 78.6834 19.91C79.0234 19.59 79.4434 19.43 79.9434 19.43H93.8034C94.3034 19.43 94.7134 19.59 95.0334 19.91C95.3734 20.21 95.5434 20.63 95.5434 21.17C95.5434 21.73 95.3734 22.17 95.0334 22.49C94.7134 22.79 94.3034 22.94 93.8034 22.94H88.8834V41.15C88.8834 41.81 88.7034 42.29 88.3434 42.59C87.9834 42.89 87.5034 43.04 86.9034 43.04C86.3234 43.04 85.8434 42.88 85.4634 42.56C85.0834 42.26 84.8934 41.79 84.8934 41.15V22.94H79.9434C79.4434 22.94 79.0234 22.79 78.6834 22.49C78.3634 22.17 78.2034 21.73 78.2034 21.17Z" fill="#8FAFFF"/>
<path d="M74.2538 31.22C74.2538 33.58 73.8138 35.66 72.9338 37.46C72.0738 39.26 70.8638 40.65 69.3038 41.63C67.7438 42.61 65.9538 43.1 63.9338 43.1C61.8738 43.1 60.0438 42.6 58.4438 41.6C56.8438 40.62 55.5938 39.23 54.6938 37.43C53.8138 35.63 53.3738 33.56 53.3738 31.22C53.3738 28.86 53.8138 26.77 54.6938 24.95C55.5938 23.11 56.8438 21.69 58.4438 20.69C60.0438 19.67 61.8738 19.16 63.9338 19.16C65.9538 19.16 67.7438 19.67 69.3038 20.69C70.8838 21.69 72.1038 23.11 72.9638 24.95C73.8238 26.77 74.2538 28.86 74.2538 31.22ZM57.4238 31.16C57.4238 32.92 57.6938 34.45 58.2338 35.75C58.7738 37.03 59.5338 38.01 60.5138 38.69C61.4938 39.35 62.6338 39.68 63.9338 39.68C65.1538 39.68 66.2238 39.35 67.1438 38.69C68.0838 38.01 68.8138 37.03 69.3338 35.75C69.8738 34.45 70.1438 32.92 70.1438 31.16C70.1438 29.32 69.8838 27.76 69.3638 26.48C68.8438 25.18 68.1138 24.21 67.1738 23.57C66.2338 22.91 65.1538 22.58 63.9338 22.58C61.9538 22.58 60.3738 23.32 59.1938 24.8C58.0138 26.28 57.4238 28.4 57.4238 31.16Z" fill="#4579FF"/>
<path d="M14.8213 22.5272C17.2576 22.422 19.2556 22.8468 20.8154 23.8015C22.3719 24.7365 23.3191 26.2099 23.6572 28.2217C23.8792 29.5432 23.7296 30.7649 23.2083 31.8868C22.7068 33.0053 21.8416 33.9518 20.613 34.7261C19.4073 35.5168 17.8874 36.0663 16.0531 36.3745C14.6133 36.6165 13.1715 36.6053 11.7277 36.3409C10.2873 36.0962 9.07171 35.6211 8.08108 34.9155C7.60375 34.4887 7.32863 34.0583 7.25572 33.6244C7.18612 33.2102 7.30886 32.7941 7.62395 32.3761C7.89959 31.9647 8.30368 31.7143 8.83621 31.6248C9.46736 31.5188 10.0364 31.6462 10.5432 32.0072C11.9846 32.9818 13.7014 33.3018 15.6934 32.967C17.2713 32.7019 18.3705 32.2434 18.9911 31.5915C19.6281 30.9167 19.8488 29.9974 19.6532 28.8337C19.461 27.6897 18.9668 26.921 18.1706 26.5275C17.3941 26.1307 16.2414 25.9695 14.7126 26.0438L13.6572 26.0995C11.5268 26.2141 9.73428 25.8055 8.27975 24.8737C6.82191 23.9221 5.93555 22.5095 5.62069 20.6357C5.41852 19.4326 5.56822 18.2718 6.06978 17.1532C6.59108 16.0313 7.39371 15.075 8.47769 14.2845C9.56167 13.4939 10.8236 12.9777 12.2634 12.7357C13.506 12.5269 14.6962 12.4892 15.834 12.6225C16.9882 12.7327 17.9865 13.0618 18.829 13.6098C19.4247 14.0167 19.7606 14.447 19.8369 14.9006C19.8833 15.1767 19.8426 15.4776 19.7148 15.8033C19.5836 16.1093 19.3933 16.3644 19.1437 16.5685C18.8907 16.753 18.6065 16.8718 18.2909 16.9248C17.7781 17.011 17.3078 16.9277 16.88 16.6751C16.2976 16.3471 15.694 16.1342 15.0691 16.0364C14.464 15.9353 13.7374 15.956 12.8893 16.0985C11.8045 16.2808 10.9535 16.7077 10.3362 17.3793C9.719 18.0509 9.49489 18.8896 9.66392 19.8955C9.83958 20.9408 10.2861 21.6669 11.0034 22.0736C11.7174 22.4607 12.658 22.6271 13.8252 22.5729L14.8213 22.5272Z" fill="#4579FF"/>
</svg>
