<svg width="30" height="30" viewBox="0 0 30 30" fill="none" xmlns="http://www.w3.org/2000/svg">
<path d="M21.65 7.5C21.65 11.1743 18.6743 14.15 15 14.15C11.3257 14.15 8.35 11.1743 8.35 7.5C8.35 3.82569 11.3257 0.85 15 0.85C18.6743 0.85 21.65 3.82569 21.65 7.5ZM0.85 26.25C0.85 25.3153 1.31147 24.4337 2.21624 23.5986C3.12678 22.7583 4.42851 22.0237 5.93875 21.4187C8.96058 20.2082 12.6031 19.6 15 19.6C17.3969 19.6 21.0394 20.2082 24.0613 21.4187C25.5715 22.0237 26.8732 22.7583 27.7838 23.5986C28.6885 24.4337 29.15 25.3153 29.15 26.25V29.15H0.85V26.25Z" fill="white" stroke="black" stroke-width="1.7"/>
</svg>
