<svg width="30" height="30" viewBox="0 0 30 30" fill="none" xmlns="http://www.w3.org/2000/svg">
<path fill-rule="evenodd" clip-rule="evenodd" d="M22.2168 12.1183C22.2168 17.6955 17.6955 22.2168 12.1183 22.2168C6.54104 22.2168 2.01971 17.6955 2.01971 12.1183C2.01971 6.54104 6.54104 2.01971 12.1183 2.01971C17.6955 2.01971 22.2168 6.54104 22.2168 12.1183ZM19.9434 21.3716C17.8322 23.1588 15.1012 24.2365 12.1183 24.2365C5.42555 24.2365 0 18.811 0 12.1183C0 5.42555 5.42555 0 12.1183 0C18.811 0 24.2365 5.42555 24.2365 12.1183C24.2365 15.1012 23.1588 17.8322 21.3716 19.9434L30 28.5717L28.5717 30L19.9434 21.3716Z" fill="black"/>
</svg>
